<?xml version="1.0" standalone="no"?>
<!DOCTYPE svg PUBLIC "-//W3C//DTD SVG 20010904//EN"
 "http://www.w3.org/TR/2001/REC-SVG-20010904/DTD/svg10.dtd">
<svg version="1.0" xmlns="http://www.w3.org/2000/svg"
 width="250.000000pt" height="250.000000pt" viewBox="0 0 250.000000 250.000000"
 preserveAspectRatio="xMidYMid meet">
<metadata>
Created by potrace 1.11, written by Peter Selinger 2001-2013
</metadata>
<g transform="translate(0.000000,250.000000) scale(0.100000,-0.100000)"
fill="#000000" stroke="none">
<path d="M2210 2260 c-9 -5 -182 -344 -385 -754 -203 -410 -372 -742 -376
-738 -4 4 -16 39 -27 77 -11 39 -43 144 -72 235 -51 164 -96 311 -104 340 -47
166 -240 768 -250 779 -16 16 -44 9 -52 -14 -5 -12 79 -299 221 -755 86 -274
108 -345 109 -354 1 -6 21 -69 43 -141 23 -71 53 -170 68 -218 20 -68 31 -90
48 -96 13 -5 26 -4 32 3 6 6 82 155 169 331 87 176 264 532 392 791 129 260
234 479 234 488 0 20 -31 37 -50 26z"/>
<path d="M2457 2153 c-9 -10 -30 -47 -47 -83 -17 -36 -35 -72 -40 -80 -5 -8
-55 -109 -111 -225 -56 -115 -171 -352 -257 -525 -468 -954 -473 -964 -467
-987 6 -25 36 -31 53 -10 11 13 136 262 312 622 154 315 392 798 504 1025 81
162 96 202 94 234 -3 45 -17 55 -41 29z"/>
<path d="M603 1863 c-144 -295 -220 -451 -398 -818 -51 -104 -117 -241 -147
-303 -31 -63 -54 -122 -51 -132 7 -25 39 -31 57 -11 8 9 58 106 112 216 148
306 319 658 538 1108 101 207 108 237 60 237 -23 0 -38 -26 -171 -297z"/>
<path d="M2266 2084 c-14 -26 -26 -48 -26 -50 0 -2 -46 -98 -267 -554 -44 -91
-108 -221 -141 -290 -33 -69 -101 -210 -152 -315 -51 -104 -126 -259 -167
-344 -68 -141 -83 -162 -89 -128 -1 7 -23 82 -49 167 -25 85 -48 162 -50 170
-2 8 -20 69 -40 135 -20 66 -38 127 -40 135 -4 15 -23 80 -115 390 -29 96 -56
189 -60 205 -4 17 -27 93 -50 170 -23 77 -46 154 -50 170 -47 176 -69 198
-121 117 -16 -25 -29 -49 -29 -53 0 -4 -29 -67 -64 -140 -112 -236 -186 -392
-186 -394 0 -2 -30 -65 -66 -142 -36 -76 -79 -165 -94 -198 -15 -33 -47 -100
-70 -150 -191 -405 -188 -396 -166 -414 28 -23 52 -2 86 72 19 39 59 126 90
192 32 66 73 154 93 195 19 41 58 125 87 185 28 61 65 139 82 175 17 36 53
112 80 170 28 58 79 168 115 245 56 121 83 171 83 154 0 -2 9 -36 21 -74 11
-39 22 -77 24 -85 2 -8 13 -44 23 -80 26 -87 201 -678 302 -1020 118 -403 130
-438 146 -455 26 -25 49 -2 100 102 26 54 87 181 137 283 49 102 123 255 164
340 42 85 106 218 143 295 37 77 111 230 165 340 243 499 236 485 224 508 -18
31 -46 19 -73 -29z"/>
</g>
</svg>
